 <svg  version="1.0" xmlns="http://www.w3.org/2000/svg"  width="300.000000pt" height="300.000000pt" viewBox="0 0 300.000000 300.000000"  preserveAspectRatio="xMidYMid meet">  <g transform="translate(0.000000,300.000000) scale(0.100000,-0.100000)" fill="#ffffff" stroke="none"> <path d="M1974 2180 c-251 -269 -460 -490 -463 -490 -3 0 -62 105 -130 233 -68 127 -132 241 -142 252 -18 18 -35 20 -202 23 -108 2 -194 -1 -209 -7 -15 -6 -38 -27 -51 -48 -22 -34 -528 -983 -706 -1324 -80 -152 -85 -181 -44 -229 26 -32 28 -32 92 -27 38 3 292 66 596 149 506 137 530 144 539 169 15 44 0 70 -103 177 -83 86 -104 102 -130 102 -17 0 -115 -23 -217 -50 -103 -28 -189 -49 -191 -47 -4 5 400 767 407 767 3 -1 151 -276 329 -613 178 -337 333 -622 344 -635 20 -21 27 -22 177 -22 151 0 157 1 178 23 12 13 22 28 22 34 0 6 -86 172 -190 368 l-191 357 23 29 c13 15 86 95 163 178 125 134 141 148 153 133 8 -9 141 -257 296 -549 156 -293 291 -542 301 -553 17 -18 31 -20 176 -20 l158 0 20 26 c12 15 21 30 21 34 0 5 -50 102 -111 217 -61 114 -224 419 -361 677 l-250 469 64 66 c35 36 94 98 130 136 35 39 120 129 186 200 77 82 122 138 122 151 0 45 -31 64 -160 100 -69 18 -139 34 -157 34 -29 0 -70 -41 -489 -490z"/> </g> </svg> 