<svg
   version="1.0"
   width="150pt"
   height="150pt"
   viewBox="0 0 150 150"
   xmlns="http://www.w3.org/2000/svg"
   style="color:#ffffff">
  <g
     transform="matrix(0.0100136,0,0,-0.00984854,0.04983504,154.3136)"
     stroke="none">
    <path
       fill="currentColor"
       d="m 12240,13341 c -76,-18 -134,-54 -210,-131 -43,-42 -267,-282 -335,-356 -5,-6 -40,-42 -76,-80 -36,-38 -125,-134 -199,-214 -74,-80 -163,-176 -199,-214 -36,-38 -71,-74 -76,-80 C 9970.5895,10986.725 8769.0615,9731.9911 7590,8457 c -24,-26 -47,-46 -52,-45 -1.3999,0.56 -546.1365,980.6409 -1243,2308 -63,120 -141,211 -255,248 H 4145 c -118.738,-54.047 -211.8525,-131.46 -274,-248 L 13,3430 c -33.55584,-96.4732 -82.792249,-670 501,-670 53.27858,0 2575.185,641.9958 5466,1445 196,52 234,74 276,162 28.6828,59.9731 72.5402,239.8846 -30,378 -8.0692,-6.1986 -918.3075,996.3845 -1041,1041 -99,36 -144,32 -390,-36 -756.9308,-189.9683 -1774.5285,-463.5939 -1775,-464 0,0 1373.2958,2575.4431 2058,3864 0,0 2235.8071,-4089.7519 3297,-6160 38,-71 116,-149 180,-179 104,-49 136,-51 810,-51 658,0 681,2 764,44 1.588,0.847 140.485,75.3047 192,235 19,54 19,57 2,106 -10,27 -28,68 -40,90 -254.411,466.4201 -1635.3253,3096.0693 -1829,3435 -24,44 -16,63 72,155 613.1863,643.5418 -189.0839,-197.2228 1448,1549 128,137 114,139 196,-19 944.758,-1777.634 1891.608,-3554.1664 2836,-5332 51,-98 118,-172 190,-207 111,-54 134,-56 819,-56 653,0 682,2 760,42 136.191,70.8941 231.036,183.1758 190,361 -8,25 -32,76 -79,162 -1788.747,3298.0019 345.144,-612.5589 -3392,6370 -18,33 -48,91 -68,128 l -36,68 67,72 c 780.9,804.814 1514.418,1653.857 2296,2458 56,57 119,135 134,167 36,75 -6,230 -87,324 -66,77 -95,91 -290,142 -398.282,108.105 -921.364,247.552 -1005,272 -68,19 -212,27 -265,15 z"
    />
  </g>
</svg>
