<svg
   version="1.0"
   width="180pt"
   height="68.7pt"
   viewBox="0 0 180 68.7"
   xmlns="http://www.w3.org/2000/svg"
   style="color:#ffffff">
  <g
     transform="matrix(0.00999946,0,0,-0.00999963,0.00972834,68.69748)"
     stroke="none">
    <path
       fill="currentColor"
       d="m 3609.5508,6870 c -61.0805,0 -85.8683,-41.263 -140.5518,-134.0039 -81.9577,-146.8904 -305.105,-500.6685 -303.0029,-630.9961 1,-70 30,-127 75,-150 53.1118,-28.7689 10621.9769,-6.1224 10646.9969,-23.9941 7,-4 19.001,-19.0069 26.001,-32.0069 772.591,-1430.3078 1521.938,-2874.6994 2296.011,-4304.0039 17,-33 41.998,-77.9902 52.998,-99.9902 39,-72 76.999,-114 123.999,-135 43,-19 65.995,-20.0098 394.995,-20.0098 393,0 394.002,0.01 457.002,77.0069 27,32 30.996,45.9951 30.996,94.9951 0,31 -3.994,59.0068 -8.994,62.0068 -5,3 -27.995,42.9932 -49.995,87.9932 -726.904,1360.2675 -1442.539,2726.7611 -2177.007,4083.0029 -82,152 -91.006,173.999 -81.006,183.999 6.623,6.6225 240.752,9.8188 753.443,10.7227 0,0 1477.151,3.5872 1489.555,10.3418 45,23.124 73.999,80.4428 75,150.8203 2.102,131.0297 -221.045,486.7126 -303.003,634.3945 -54.683,93.2404 -79.485,134.7217 -140.566,134.7217 z"
    />
    <path
       fill="currentColor"
       d="m 6790.0049,5511.0059 c -25,2 -243.0098,1.9892 -485.0098,-1.0108 -428,-5 -440.9961,-5.9971 -480.9961,-26.9971 -22,-12 -57.999,-40.9951 -78.999,-64.9951 -363.6332,-384.8178 -721.3446,-775.2168 -1084.9951,-1160.0097 -41,-46 -57.0108,-47.9952 -76.0108,-4.9952 -228.0784,383.1275 -392.6954,831.4918 -641.997,1191.0059 -10,10 -33.9942,28.9971 -53.9942,41.9971 l -37.998,23.9941 H 3362.0068 2872.998 c 0,0 -83.1247,-3.8935 -107.08,-79.9072 C 2758.2287,5405.6885 87.993164,392.00684 87.993164,392.00684 -7.0068358,205.00684 -16,168.99414 15,98.994141 c 23,-53 47,-75.993164 90,-87.993164 C 152.35191,-1.4600513 12295.863,-0.54842901 16435.444,0.02929688 V 0.01464844 h 23.028 c 76.952,0.01079453 234.114,-0.21571787 305.258,-0.20507813 v 0.20507813 h 1161.255 c 51.686,0 73.999,91.86126656 75,161.05957156 2.102,128.83498 -221.045,478.55167 -303.003,623.75976 -54.683,91.67876 -79.47,132.48047 -140.551,132.48047 h -1119.39 c -0.24,5.6e-4 -1.357,-5.5e-4 -1.597,0 -1046.933,2.41729 -3068.529,2.68067 -6970.444,2.68067 -6429,0 -8044.9951,3.00781 -8044.9951,13.00781 602.4352,1148.50587 1210.2469,2299.26247 1826.001,3442.00197 18,33 48.9902,92.9931 69.9902,132.9931 37,72 50.4394,81.9112 67.0019,55.0049 1.0885,-1.2402 1149.2943,-2121.5986 1619.004,-3041.997 48,-93 80.999,-132.001 138.999,-161.001 28.7339,-15.1651 658.1034,-34.8392 756.0058,-3.0029 57.6673,32.0574 166.0037,59.1157 128.9942,131.0009 L 5072.0068,3341.001 c 537.7276,627.1975 512.4244,557.6817 967.9981,1049.0039 181,197 252.9902,270 264.9902,270 39.2894,0 1689.0088,-3142.9981 1689.0088,-3142.9981 59.1875,-83.375 82.9922,-130.0019 136.9922,-157.0019 36,-19 61.0098,-20.0098 395.0098,-20.0098 351,0 356.9882,0 392.9882,22.002 43,27 61.0088,44.0097 84.0088,80.0097 28,45 20.9922,89.9883 -28.0078,182.9883 -662.5312,1225.2806 -1304.973,2461.4004 -1965,3688.0078 -78,149 -123.9902,190.003 -219.9902,198.003 z"
    />
    <path
       fill="currentColor"
       d="m 11745,5492 c -75,-43 -95,-70 -191,-257 -107.192,-206.7278 -1444.324,-2691.5528 -1821,-3425 -74,-148 -77,-157 -77,-225 -1,-103 46,-180 138,-227 33,-17 53,-19 135,-15 620.408,180.723 2439.829,595.3108 2823,739 163.925,59.423 124.756,229.6405 24,322 -475.889,464.7247 -0.356,-1.0922 -477,466 -47,13 -127,7 -199,-15 -883.593,-221.394 -4.33,-1.3222 -886,-221 l 1040.875,1948.5623 c 0,0 1606.125,-3016.5623 1647.125,-3091.5623 38,-71 72,-110 114,-133 31,-16 64,-18 404,-18 h 371 c 84.145,0.1555 158.976,102.2807 129,158 -148.278,275.6162 -2037,3852 -2037,3852 -41,78 -73,113 -128,140 -40,19 -61,20 -511,19 -422,0 -472,-2 -499,-17 z"
    />
  </g>
</svg>
