<?xml version="1.0" encoding="UTF-8"?>
<svg width="180pt" height="68.7pt" color="#ffffff" version="1.0" viewBox="0 0 180 68.7" xmlns="http://www.w3.org/2000/svg" xmlns:xlink="http://www.w3.org/1999/xlink">
 <defs>
  <linearGradient id="a" x1="8999.5" x2="8999.5" y1="12435" y2="-5565.6" gradientUnits="userSpaceOnUse">
   <stop offset=".47604"/>
   <stop stop-color="#969696" offset=".72488"/>
  </linearGradient>
  <filter id="b" x="-.079997" y="-.2096" width="1.16" height="1.4192" color-interpolation-filters="sRGB">
   <feFlood flood-color="rgb(21,192,255)" in="SourceGraphic" result="flood"/>
   <feGaussianBlur in="SourceGraphic" result="blur" stdDeviation="200.000000"/>
   <feOffset dx="0.000000" dy="0.000000" in="blur" result="offset"/>
   <feComposite in="flood" in2="offset" operator="in" result="comp1"/>
   <feComposite in="SourceGraphic" in2="comp1" result="fbSourceGraphic"/>
   <feColorMatrix in="fbSourceGraphic" result="fbSourceGraphicAlpha" values="0 0 0 -1 0 0 0 0 -1 0 0 0 0 -1 0 0 0 0 1 0"/>
   <feFlood flood-color="rgb(21,192,255)" in="fbSourceGraphic" result="flood"/>
   <feGaussianBlur in="fbSourceGraphic" result="blur" stdDeviation="200.000000"/>
   <feOffset dx="0.000000" dy="0.000000" in="blur" result="offset"/>
   <feComposite in="flood" in2="offset" operator="in" result="comp1"/>
   <feComposite in="fbSourceGraphic" in2="comp1" result="fbSourceGraphic"/>
   <feColorMatrix in="fbSourceGraphic" result="fbSourceGraphicAlpha" values="0 0 0 -1 0 0 0 0 -1 0 0 0 0 -1 0 0 0 0 1 0"/>
   <feFlood flood-color="rgb(21,192,255)" in="fbSourceGraphic" result="flood"/>
   <feGaussianBlur in="fbSourceGraphic" result="blur" stdDeviation="200.000000"/>
   <feOffset dx="0.000000" dy="0.000000" in="blur" result="offset"/>
   <feComposite in="flood" in2="offset" operator="in" result="comp1"/>
   <feComposite in="fbSourceGraphic" in2="comp1" result="comp2"/>
  </filter>
 </defs>
 <g transform="matrix(.0094932 0 0 -.0087736 4.566 64.486)" fill="url(#a)" filter="url(#b)">
  <path d="m3609.6 6870c-61.08 0-85.868-41.263-140.55-134-81.958-146.89-305.1-500.67-303-631 1-70 30-127 75-150 53.112-28.769 10622-6.1224 10647-23.994 7-4 19.001-19.007 26.001-32.007 772.59-1430.3 1521.9-2874.7 2296-4304 17-33 41.998-77.99 52.998-99.99 39-72 76.999-114 124-135 43-19 65.995-20.01 395-20.01 393 0 394 0.01 457 77.007 27 32 30.996 45.995 30.996 94.995 0 31-3.994 59.007-8.994 62.007s-27.995 42.993-49.995 87.993c-726.9 1360.3-1442.5 2726.8-2177 4083-82 152-91.006 174-81.006 184 6.623 6.6225 240.75 9.8188 753.44 10.723 0 0 1477.2 3.5872 1489.6 10.342 45 23.124 73.999 80.443 75 150.82 2.102 131.03-221.04 486.71-303 634.39-54.683 93.24-79.485 134.72-140.57 134.72z"/>
  <path d="m6790 5511c-25 2-243.01 1.9892-485.01-1.0108-428-5-441-5.9971-481-26.997-22-12-57.999-40.995-78.999-64.995-363.63-384.82-721.34-775.22-1085-1160-41-46-57.011-47.995-76.011-4.9952-228.08 383.13-392.7 831.49-642 1191-10 10-33.994 28.997-53.994 41.997l-37.998 23.994h-977.01s-83.125-3.8935-107.08-79.907c-7.6893-24.399-2677.9-5038.1-2677.9-5038.1-95-187-103.99-223.01-72.993-293.01 23-53 47-75.993 90-87.993 47.352-12.461 12191-11.549 16330-10.972v-0.014648h23.028c76.952 0.010795 234.11-0.21572 305.26-0.20508v0.20508h1161.3c51.686 0 73.999 91.861 75 161.06 2.102 128.83-221.04 478.55-303 623.76-54.683 91.679-79.47 132.48-140.55 132.48h-1119.4c-0.24 5.6e-4 -1.357-5.5e-4 -1.597 0-1046.9 2.4173-3068.5 2.6807-6970.4 2.6807-6429 0-8045 3.0078-8045 13.008 602.44 1148.5 1210.2 2299.3 1826 3442 18 33 48.99 92.993 69.99 132.99 37 72 50.439 81.911 67.002 55.005 1.0885-1.2402 1149.3-2121.6 1619-3042 48-93 80.999-132 139-161 28.734-15.165 658.1-34.839 756.01-3.0029 57.667 32.057 166 59.116 128.99 131l-953.99 1853c537.73 627.2 512.42 557.68 968 1049 181 197 252.99 270 264.99 270 39.289 0 1689-3143 1689-3143 59.188-83.375 82.992-130 136.99-157 36-19 61.01-20.01 395.01-20.01 351 0 356.99 0 392.99 22.002 43 27 61.009 44.01 84.009 80.01 28 45 20.992 89.988-28.008 182.99-662.53 1225.3-1305 2461.4-1965 3688-78 149-123.99 190-219.99 198z"/>
  <path d="m11745 5492c-75-43-95-70-191-257-107.19-206.73-1444.3-2691.6-1821-3425-74-148-77-157-77-225-1-103 46-180 138-227 33-17 53-19 135-15 620.41 180.72 2439.8 595.31 2823 739 163.92 59.423 124.76 229.64 24 322-475.89 464.72-0.356-1.0922-477 466-47 13-127 7-199-15-883.59-221.39-4.33-1.3222-886-221l1040.9 1948.6s1606.1-3016.6 1647.1-3091.6c38-71 72-110 114-133 31-16 64-18 404-18h371c84.145 0.1555 158.98 102.28 129 158-148.28 275.62-2037 3852-2037 3852-41 78-73 113-128 140-40 19-61 20-511 19-422 0-472-2-499-17z"/>
 </g>
</svg>
