<svg width="900pt" height="300pt" version="1.0" viewBox="0 0 900 300" xml:space="preserve"
    xmlns="http://www.w3.org/2000/svg"
    xmlns:xlink="http://www.w3.org/1999/xlink">
    <defs>
        <linearGradient id="a" x1="51.544" x2="8936.2" y1="1803.8" y2="1803.8" gradientUnits="userSpaceOnUse">
            <stop stop-color="#92ef85" stop-opacity=".99608" offset=".18519"/>
            <stop stop-color="#73f5f5" offset=".2963"/>
        </linearGradient>
    </defs>
    <path transform="matrix(.10128 0 0 -.10195 -5.0132 301.82)" d="m4065 770v-745h95.009v531.99l449.99-531.99c0.5568-0.65824 94.994 0 94.994 0v745h-94.994v-554l-449.99 554h-95.009zm965 0v-90.004h255v-655h99.999v655h253.01v90.004h-608zm930 0v-745h105v238.07h214l154-221.07c18-17 18.32-16.673 74.992-16.998 61.999-0.35568 67.009 7.9969 24.009 63.997-60 77-110.43 177.07-117.01 189.99 44.078 16.598 110.89 81.608 130.01 119.01 11 23 15.996 58.988 15.996 116.99 1 78-2.0071 87.008-32.007 133.01-34 52-64.992 75.999-138.99 104-37 15-78.009 18.002-237.01 18.004h-193zm2055 0v-745h496.13v90.938h-391.14v654.06h-104.99zm-5633.7-0.48853c-212.16 0.00126-384.15-167.54-384.14-374.21-0.0036-206.67 171.98-374.21 384.14-374.21 103.1-0.002117 201.87 40.368 274.11 112.03 0 0-14.143 50.64-68.469 64.945-53.865-55.425-128.09-86.729-205.64-86.728-157.86-1.7e-4 -285.84 127.13-285.84 283.96-1e-4 156.83 127.97 283.96 285.84 283.96 75.241-0.00241 147.45-29.477 200.95-82.029 0 0 53.448 19.108 65.229 67.876-71.552 66.987-166.94 104.4-266.18 104.4zm939.95 0a384.14 374.2 0 0 1-384.14-374.21 384.14 374.2 0 0 1 384.14-374.21 384.14 374.2 0 0 1 384.14 374.21 384.14 374.2 0 0 1-384.14 374.21zm3955.4 0a384.14 374.2 0 0 1-384.14-374.21 384.14 374.2 0 0 1 384.14-374.21 384.14 374.2 0 0 1 384.14 374.21 384.14 374.2 0 0 1-384.14 374.21zm-1210.4-87.791c1.0577-1.0699 227.84 2.2722 278.84-19.728 60-25 83.013-45.004 100.01-85.004 19-46 19-84.994 0-127.99-20-46-34.006-61.001-75.006-82.001-30-15-49.89-16.008-98.813-15.647h-206.19l1.157 330.37zm-2744.9-2.457a285.84 283.96 0 0 0 285.84-283.96 285.84 283.96 0 0 0-285.84-283.96 285.84 283.96 0 0 0-285.84 283.96 285.84 283.96 0 0 0 285.84 283.96zm3955.4 0a285.84 283.96 0 0 0 285.84-283.96 285.84 283.96 0 0 0-285.84-283.96 285.84 283.96 0 0 0-285.84 283.96 285.84 283.96 0 0 0 285.84 283.96z" fill="#fff" stroke="#000" stroke-width="4.9206"/>
    <path transform="matrix(.10128 0 0 -.10195 -5.0132 301.82)" d="m1428.8 2958a86.314 85.748 0 0 1-86.316-85.751 86.314 85.748 0 0 1 56.71-80.549h-0.2169l0.9835-299.67c3.7026-216.02 1.9963-307 15.996-335 34-65-4.8874-71.375 492.99-72h704.01l494.99-865.57h208.01l436.01 788.57 0.0723-940.61h332.91v1530.2h-332.91l-534.08-973.56s-371.7 651.05-555 973.56h-328v-462.56l-426.01-3.003c-412-2-416-2.0049-435 18.995-18 20-15.29 35.327-17.992 331.01l0.9979 308.99 0.2604 0.2587a86.314 85.748 0 0 1 57.882 80.966 86.314 85.748 0 0 1-86.302 85.751zm0-50.016a35.964 35.728 0 0 0 35.956-35.734 35.964 35.728 0 0 0-35.956-35.734 35.964 35.728 0 0 0-35.97 35.734 35.964 35.728 0 0 0 35.97 35.734zm130.3-289.9c-25.254 0.8175-41.906-2.4394-45.14-11.064 0 0-0.4934-271.96 0-271.99l63.002-6.9974c23.758-2.7951 124.72-35.652 254-78.998 135.97-28.799 178.9 186.08 149 236-40.48 49.621-311.43 129.51-420.87 133.05zm-219.13-8.0607c-29.298 1.018-77.715-2.9217-115.01-7.9888-190-26-333-127.01-405-287.01-19-42-21.999-66.993-21.999-164.99 0-145 16.003-186.01 112-282.01 38-38 74.616-67.006 67.616-68.006-6 0-128.62-1-257.62 0h-221.43a86.314 85.748 0 0 1-82.281 59.873 86.314 85.748 0 0 1-86.317-85.751 86.314 85.748 0 0 1 86.317-85.751 86.314 85.748 0 0 1 81.876 58.638h322.83c303-3 364.01-7.9957 429.01-33.996 14-6 52-18.004 85-28.004 279-81 326-101.01 363-155.01 26-38 27.998-72.988 7.9982-121.99-22-52-57.004-80.007-133-108.01l-67.992-25.992v-123.01c0-153-0.0113-153 111.99-127 183 43 311.01 132 380.01 263 41 79 57.999 190.01 42.999 275.01-34 190-137 271.99-453 360.99-228 65-266 76.998-307 93.998-129 57-150 80.001-150 164 0 50 4.0008 63.007 28.001 88.007 31 33 97.992 60.994 145.99 60.994 53 0 40.013 15.386 36.013 151.39-0.6116-0.7166 0 128.61 0 128.61zm3612.2-12.429 405.82-957.57h-317.99l-103.09-248.92h567.09l144.99-323.69h335.01l-693.01 1530.2h-338.83zm1218.9 0v-294.39l384.9-1.1783c370-5 379-4.9954 432-28.995 95-42 142-117 142-225 0-114-56.001-194-170-243-39-18-67.997-21.567-250-21.567h-215v392.36h-323.9v-1108.4h323.9v437.62h336l310-437.62h345.99s-327 495.76-327 495.61c0 0 186.48 49.162 281.01 317 28 79 27.002 273-0.998 353-30 86-72 151.01-135 210.01-37 35-132.01 91.998-165.01 98.998-14 3-37.989 10.992-54.989 15.992-105 37-547 39.571-547 39.571h-366.9zm1385.9 0 0.9979-294.27h548.33v-1235.9h335.71v1235.9h493.67v294.27h-1378.7zm-2687.9-270.23c0.3101-0.9222-599.89-1260-599.89-1260h334.79l411.9 912.22-146.8 347.73zm-2538.8-328.1v-931.85h332.71v686.05l-145.12 245.8h-187.59zm-1914-189.39a35.964 35.728 0 0 0 35.956-35.734 35.964 35.728 0 0 0-35.956-35.734 35.964 35.728 0 0 0-35.97 35.734 35.964 35.728 0 0 0 35.97 35.734zm-277.93-157.92a86.314 85.748 0 0 1-86.317-85.751 86.314 85.748 0 0 1 86.317-85.751 86.314 85.748 0 0 1 83.135 62.704l566.51 0.8764s353.61-3.0499 530.41-5.5031c62.979-0.8739 64.896-14.584 64.896-14.584 15.636-13.528 19.089-26.909 20.089-363.91v-342.3c-0.7126-0.21146-1.4231-0.44648-2.1261-0.68969h3.8762a86.314 85.748 0 0 1-60.066-81.684 86.314 85.748 0 0 1 86.316-85.751 86.314 85.748 0 0 1 86.302 85.751 86.314 85.748 0 0 1-60.051 81.684h2.343v334.99c0 361-0.9993 368.99-49.999 412.99-21 19-37.995 19.271-605.99 22.271h-581.99a86.314 85.748 0 0 1-83.655 64.658zm0-50.016a35.964 35.728 0 0 0 35.956-35.734 35.964 35.728 0 0 0-35.956-35.734 35.964 35.728 0 0 0-35.97 35.734 35.964 35.728 0 0 0 35.97 35.734zm731.48-143.51c-7.9075-0.176-13.65-5.8943-22.837-16.394-24.015-41.066-104.55-215.86-84.002-249 83-79 420-191 547-181l45.01 3.003v130.01 129l-60.008 12.989c-109 23-140 31.005-185 48.005-61 22-135 60.004-187 95.004-29.25 19.688-43 28.618-53.167 28.392zm561.56-687.33a35.964 35.728 0 0 0 35.956-35.734 35.964 35.728 0 0 0-35.956-35.734 35.964 35.728 0 0 0-35.97 35.734 35.964 35.728 0 0 0 35.97 35.734z" fill="url(#a)" stroke="#000"/>
</svg>
